<svg width="41" height="56" viewBox="0 0 41 56" fill="none" xmlns="http://www.w3.org/2000/svg">
<g clip-path="url(#clip0_12_158)">
<path d="M39.4625 -1H27.1625C26.3179 -1 25.1351 -0.1635 24.5385 0.855L9.28858 26.8915C9.00103 27.3847 8.8396 28.0523 8.8396 28.7483C8.8396 29.4442 9.00103 30.1118 9.28858 30.605L22.4885 53.1415C22.7774 53.6324 23.1684 53.9081 23.5761 53.9081C23.9837 53.9081 24.3747 53.6324 24.6636 53.1415L39.9135 27.105C40.5121 26.083 41 24.067 41 22.625V1.625C40.9989 0.929375 40.8366 0.262769 40.5485 -0.229114C40.2604 -0.720997 39.87 -0.998152 39.4625 -1V-1ZM31.775 20C31.3711 19.9998 30.9711 19.8637 30.598 19.5996C30.2248 19.3354 29.8858 18.9484 29.6003 18.4606C29.3147 17.9727 29.0882 17.3937 28.9338 16.7564C28.7793 16.1191 28.6999 15.4362 28.7 14.7465C28.7002 14.0568 28.7799 13.374 28.9346 12.7369C29.0893 12.0998 29.316 11.521 29.6017 11.0335C29.8874 10.546 30.2266 10.1593 30.5999 9.8956C30.9731 9.63188 31.3731 9.49627 31.7771 9.4965C32.5929 9.49696 33.3752 10.0507 33.9519 11.0359C34.5285 12.0212 34.8523 13.3571 34.8521 14.75C34.8518 16.1429 34.5275 17.4785 33.9504 18.463C33.3733 19.4476 32.5908 20.0005 31.775 20Z" fill="#3830D8"/>
<path d="M4.09996 28.75L21.525 -1H18.9625C18.1179 -1 16.935 -0.1635 16.3385 0.855L1.08851 26.8915C0.800957 27.3847 0.639526 28.0523 0.639526 28.7483C0.639526 29.4442 0.800957 30.1118 1.08851 30.605L14.2885 53.1415C14.5774 53.6324 14.9684 53.9081 15.376 53.9081C15.7836 53.9081 16.1746 53.6324 16.4635 53.1415L17.427 51.4965L4.10201 28.7465L4.09996 28.75Z" fill="#3830D8"/>
</g>
<defs>
<clipPath id="clip0_12_158">
<rect width="41" height="56" fill="white"/>
</clipPath>
</defs>
</svg>
