<svg width="58" height="58" viewBox="0 0 58 58" fill="none" xmlns="http://www.w3.org/2000/svg">
<path d="M43.5 46.7083C45.5059 46.7083 47.125 45.0892 47.125 43.0833C47.125 41.0775 45.5059 39.4583 43.5 39.4583C41.4942 39.4583 39.875 41.0775 39.875 43.0833C39.875 45.0892 41.4942 46.7083 43.5 46.7083ZM47.125 24.9583H41.0834V31H51.8617L47.125 24.9583ZM14.5 46.7083C16.5059 46.7083 18.125 45.0892 18.125 43.0833C18.125 41.0775 16.5059 39.4583 14.5 39.4583C12.4942 39.4583 10.875 41.0775 10.875 43.0833C10.875 45.0892 12.4942 46.7083 14.5 46.7083ZM48.3334 21.3333L55.5834 31V43.0833H50.75C50.75 47.095 47.5117 50.3333 43.5 50.3333C39.4884 50.3333 36.25 47.095 36.25 43.0833H21.75C21.75 47.095 18.5117 50.3333 14.5 50.3333C10.4884 50.3333 7.25002 47.095 7.25002 43.0833H2.41669V16.5C2.41669 13.8175 4.56752 11.6667 7.25002 11.6667H41.0834V21.3333H48.3334ZM7.25002 16.5V38.25H9.08669C10.4159 36.7758 12.3492 35.8333 14.5 35.8333C16.6509 35.8333 18.5842 36.7758 19.9134 38.25H36.25V16.5H7.25002ZM24.1667 18.9167L32.625 27.375L24.1667 35.8333V29.7917H12.0834V24.9583H24.1667V18.9167Z" fill="#3830D8"/>
</svg>
