<svg width="48" height="50" viewBox="0 0 48 50" fill="none" xmlns="http://www.w3.org/2000/svg">
<path d="M20 0L38.245 5.7C38.7539 5.85886 39.1986 6.17621 39.5143 6.60572C39.8301 7.03524 40.0002 7.55443 40 8.0875V12.5H45C45.663 12.5 46.2989 12.7634 46.7678 13.2322C47.2366 13.7011 47.5 14.337 47.5 15V35C47.5 35.663 47.2366 36.2989 46.7678 36.7678C46.2989 37.2366 45.663 37.5 45 37.5L36.95 37.5025C35.9825 38.7775 34.8075 39.9025 33.45 40.8275L20 50L6.55 40.83C4.53131 39.4536 2.87938 37.605 1.73785 35.4448C0.596321 33.2846 -0.000253057 30.8783 8.05246e-08 28.435V8.0875C0.000301516 7.55485 0.170717 7.03623 0.486406 6.60721C0.802095 6.1782 1.24655 5.86123 1.755 5.7025L20 0ZM20 5.235L5 9.925V28.435C4.99964 29.9656 5.35063 31.4758 6.02591 32.8493C6.7012 34.2229 7.68277 35.4231 8.895 36.3575L9.3675 36.6975L20 43.95L29.455 37.5H17.5C16.837 37.5 16.2011 37.2366 15.7322 36.7678C15.2634 36.2989 15 35.663 15 35V15C15 14.337 15.2634 13.7011 15.7322 13.2322C16.2011 12.7634 16.837 12.5 17.5 12.5H35V9.925L20 5.235ZM20 25V32.5H42.5V25H20ZM20 20H42.5V17.5H20V20Z" fill="#3830D8"/>
</svg>
